<svg width="300" height="199" viewBox="0 0 300 199" fill="none" xmlns="http://www.w3.org/2000/svg">
<g id="Group 2">
<path id="GYMPOINT" d="M56.0469 143.688C54.7812 145.203 52.9922 146.383 50.6797 147.227C48.3672 148.055 45.8047 148.469 42.9922 148.469C40.0391 148.469 37.4453 147.828 35.2109 146.547C32.9922 145.25 31.2734 143.375 30.0547 140.922C28.8516 138.469 28.2344 135.586 28.2031 132.273V129.953C28.2031 126.547 28.7734 123.602 29.9141 121.117C31.0703 118.617 32.7266 116.711 34.8828 115.398C37.0547 114.07 39.5938 113.406 42.5 113.406C46.5469 113.406 49.7109 114.375 51.9922 116.312C54.2734 118.234 55.625 121.039 56.0469 124.727H49.2031C48.8906 122.773 48.1953 121.344 47.1172 120.438C46.0547 119.531 44.5859 119.078 42.7109 119.078C40.3203 119.078 38.5 119.977 37.25 121.773C36 123.57 35.3672 126.242 35.3516 129.789V131.969C35.3516 135.547 36.0312 138.25 37.3906 140.078C38.75 141.906 40.7422 142.82 43.3672 142.82C46.0078 142.82 47.8906 142.258 49.0156 141.133V135.25H42.6172V130.07H56.0469V143.688ZM73.5312 129.25L80.6328 113.875H88.3203L77.1172 135.625V148H69.9688V135.625L58.7656 113.875H66.4766L73.5312 129.25ZM100.625 113.875L109.391 138.625L118.109 113.875H127.344V148H120.289V138.672L120.992 122.57L111.781 148H106.953L97.7656 122.594L98.4688 138.672V148H91.4375V113.875H100.625ZM140.516 135.977V148H133.484V113.875H146.797C149.359 113.875 151.609 114.344 153.547 115.281C155.5 116.219 157 117.555 158.047 119.289C159.094 121.008 159.617 122.969 159.617 125.172C159.617 128.516 158.469 131.156 156.172 133.094C153.891 135.016 150.727 135.977 146.68 135.977H140.516ZM140.516 130.281H146.797C148.656 130.281 150.07 129.844 151.039 128.969C152.023 128.094 152.516 126.844 152.516 125.219C152.516 123.547 152.023 122.195 151.039 121.164C150.055 120.133 148.695 119.602 146.961 119.57H140.516V130.281ZM192.5 131.711C192.5 135.07 191.906 138.016 190.719 140.547C189.531 143.078 187.828 145.031 185.609 146.406C183.406 147.781 180.875 148.469 178.016 148.469C175.188 148.469 172.664 147.789 170.445 146.43C168.227 145.07 166.508 143.133 165.289 140.617C164.07 138.086 163.453 135.18 163.438 131.898V130.211C163.438 126.852 164.039 123.898 165.242 121.352C166.461 118.789 168.172 116.828 170.375 115.469C172.594 114.094 175.125 113.406 177.969 113.406C180.812 113.406 183.336 114.094 185.539 115.469C187.758 116.828 189.469 118.789 190.672 121.352C191.891 123.898 192.5 126.844 192.5 130.188V131.711ZM185.375 130.164C185.375 126.586 184.734 123.867 183.453 122.008C182.172 120.148 180.344 119.219 177.969 119.219C175.609 119.219 173.789 120.141 172.508 121.984C171.227 123.812 170.578 126.5 170.562 130.047V131.711C170.562 135.195 171.203 137.898 172.484 139.82C173.766 141.742 175.609 142.703 178.016 142.703C180.375 142.703 182.188 141.781 183.453 139.938C184.719 138.078 185.359 135.375 185.375 131.828V130.164ZM205.086 148H198.055V113.875H205.086V148ZM239.375 148H232.344L218.656 125.547V148H211.625V113.875H218.656L232.367 136.375V113.875H239.375V148ZM270.5 119.57H260.047V148H253.016V119.57H242.703V113.875H270.5V119.57Z" fill="#EE4D64"/>
<g id="noun_Gym_1617325">
<g id="Group">
<g id="Group 9">
<path id="Shape" fill-rule="evenodd" clip-rule="evenodd" d="M233.908 23.532C231.763 23.532 229.73 24.0296 227.916 24.9169C227.464 17.5776 221.44 11.7466 214.097 11.7466C211.948 11.7466 209.912 12.2459 208.095 13.1363C207.579 5.85944 201.585 0.0973816 194.286 0.0973816C186.649 0.0973816 180.436 6.40272 180.436 14.1532V37.452C180.436 39.6625 182.202 41.4546 184.38 41.4546C186.558 41.4546 188.324 39.6625 188.324 37.452V14.1532C188.324 10.8167 190.998 8.10247 194.286 8.10247C197.573 8.10247 200.248 10.8167 200.248 14.1532V78.2636V89.9128C200.248 93.2494 197.573 95.9636 194.286 95.9636C190.998 95.9636 188.324 93.2494 188.324 89.9128V66.614C188.324 64.4036 186.558 62.6115 184.38 62.6115H131.188C129.01 62.6115 127.244 64.4036 127.244 66.614C127.244 68.8245 129.01 70.6166 131.188 70.6166H180.436V89.9128C180.436 97.6634 186.649 103.969 194.286 103.969C201.585 103.969 207.58 98.2066 208.095 90.9297C209.912 91.8202 211.948 92.3194 214.097 92.3194C221.44 92.3194 227.464 86.488 227.916 79.1492C229.73 80.0364 231.763 80.5341 233.908 80.5341C241.544 80.5341 247.757 74.2287 247.757 66.4785V37.5873C247.757 29.8371 241.544 23.532 233.908 23.532ZM220.059 78.2636C220.059 81.6001 217.385 84.3143 214.097 84.3143C210.809 84.3143 208.135 81.6001 208.135 78.2636V25.8025C208.135 22.466 210.809 19.7517 214.097 19.7517C217.385 19.7517 220.059 22.466 220.059 25.8025V78.2636ZM233.908 72.529C237.195 72.529 239.87 69.8147 239.87 66.4785V37.5873C239.87 34.2513 237.195 31.5371 233.908 31.5371C230.621 31.5371 227.946 34.2513 227.946 37.5873V66.4785C227.946 69.8147 230.621 72.529 233.908 72.529Z" fill="#EE4D64"/>
<path id="Shape_2" fill-rule="evenodd" clip-rule="evenodd" d="M115.748 62.6115C113.57 62.6115 111.804 64.4036 111.804 66.614V89.9128C111.804 93.2494 109.13 95.9636 105.842 95.9636C102.555 95.9636 99.8802 93.2494 99.8802 89.9128V78.2636V25.8025V14.1532C99.8802 10.8167 102.555 8.10247 105.842 8.10247C109.13 8.10247 111.804 10.8167 111.804 14.1532V37.452C111.804 39.6625 113.57 41.4546 115.748 41.4546H168.94C171.118 41.4546 172.884 39.6625 172.884 37.452C172.884 35.2416 171.118 33.4495 168.94 33.4495H119.692V14.1532C119.692 6.40272 113.479 0.0973816 105.842 0.0973816C98.5427 0.0973816 92.5484 5.85944 92.0328 13.1363C90.216 12.2459 88.1797 11.7466 86.0306 11.7466C78.6873 11.7466 72.6636 17.5781 72.2114 24.9169C70.3972 24.0296 68.3646 23.532 66.2195 23.532C58.5827 23.532 52.37 29.8373 52.37 37.5879V66.4785C52.37 74.2287 58.5827 80.5338 66.2195 80.5338C68.3646 80.5338 70.3972 80.0362 72.2114 79.1489C72.6636 86.4883 78.6873 92.3192 86.0306 92.3192C88.1797 92.3192 90.2158 91.8199 92.0328 90.9295C92.5484 98.2064 98.5427 103.968 105.842 103.968C113.479 103.968 119.692 97.6631 119.692 89.9126V66.6138C119.692 64.4033 117.926 62.6115 115.748 62.6115ZM66.22 72.529C62.9327 72.529 60.258 69.8147 60.258 66.4787V37.5879C60.258 34.2513 62.9324 31.5371 66.22 31.5371C69.5073 31.5371 72.1817 34.2513 72.1817 37.5879V66.4785C72.1814 69.8147 69.507 72.529 66.22 72.529ZM80.069 78.2636C80.069 81.6001 82.7436 84.3143 86.0309 84.3143C89.3185 84.3143 91.9929 81.6001 91.9929 78.2636V25.8025C91.9929 22.466 89.3185 19.7517 86.0309 19.7517C82.7434 19.7517 80.069 22.466 80.069 25.8025V78.2636Z" fill="#EE4D64"/>
<path id="Path" d="M111.793 52.2668V53.6087C111.793 55.8192 113.559 57.6112 115.737 57.6112C117.915 57.6112 119.68 55.8192 119.68 53.6087V52.2668C119.68 50.0563 117.915 48.2642 115.737 48.2642C113.559 48.2642 111.793 50.0563 111.793 52.2668Z" fill="#EE4D64"/>
<path id="Path_2" d="M188.324 51.8217V50.4798C188.324 48.2693 186.558 46.4772 184.38 46.4772C182.202 46.4772 180.437 48.2693 180.437 50.4798V51.8217C180.437 54.0322 182.202 55.8242 184.38 55.8242C186.558 55.8242 188.324 54.0322 188.324 51.8217Z" fill="#EE4D64"/>
</g>
</g>
</g>
</g>
</svg>
